<svg version="1.1" xmlns="http://www.w3.org/2000/svg" viewBox="-256.2 -866.45 3785.971533203125 1184.65"><desc>Created with Snap</desc><defs></defs><g><g><g transform="matrix(1,0,0,-1,0,0)"><path d="M542 463L548 463Q540 461 539 454Q539 448 539 440Q539 433 540 426Q541 420 543 418Q535 412 537 407Q540 403 542 396Q536 386 538 371Q540 357 540 346Q540 342 538 338Q537 335 537 331Q537 325 539 319Q542 313 542 306Q542 296 539 288Q537 280 540 269Q532 260 533 248Q535 237 535 226Q535 221 533 216Q531 212 530 207Q528 199 530 192Q532 185 527 177Q532 169 532 160Q532 151 532 143Q532 135 535 125Q539 116 537 109Q543 106 543 98Q543 88 540 88Q537 89 532 83Q535 78 536 74Q538 70 540 65Q540 59 535 51Q531 44 536 39Q526 32 523 20Q519 18 514 14Q510 10 506 10Q502 10 498 11Q495 13 491 13Q481 13 472 9Q464 5 453 6Q437 8 432 12Q427 16 422 21Q417 26 412 31Q407 36 401 38Q400 41 394 47Q389 54 382 60Q376 66 369 71Q362 76 359 77Q351 85 350 89Q349 93 342 93Q343 100 340 104Q338 109 335 113Q332 118 328 122Q325 126 324 132Q314 134 311 142Q308 150 297 150Q295 157 290 159Q285 162 280 164Q279 169 277 169Q275 170 277 176Q266 184 256 193Q246 203 234 211Q232 219 227 225Q223 232 215 236Q215 240 211 247Q207 255 202 263Q197 271 192 278Q187 285 184 288Q179 293 179 295Q180 298 173 303Q168 306 169 308Q170 311 167 315Q165 320 160 323Q156 327 152 331Q147 332 145 330Q143 329 142 327Q141 325 140 323Q139 321 135 321Q136 316 137 312Q139 308 139 303Q139 298 136 292Q133 286 139 284Q135 276 134 266Q134 257 139 249Q133 248 132 244Q131 240 132 234Q134 229 136 223Q138 218 138 215Q138 210 136 205Q135 201 135 196Q135 186 140 176Q145 166 151 158Q156 152 157 145Q159 138 162 132Q158 124 161 116Q164 108 165 99Q167 96 169 93Q172 91 174 87Q169 85 169 80Q170 75 168 71Q168 64 170 59Q172 54 172 49Q173 45 170 41Q168 37 160 32Q161 20 158 16Q155 12 149 3Q141 2 135 1Q130 1 124 6Q116 6 116 -2Q107 3 97 7Q87 12 79 17Q79 27 78 36Q78 45 78 55L78 73Q78 78 76 80Q74 83 71 86Q73 95 73 108Q74 122 66 129Q65 144 64 159Q64 174 61 189Q70 200 65 214Q61 229 61 242Q61 245 62 248Q64 251 64 254Q64 270 61 285Q59 300 59 316Q59 323 61 330Q64 337 64 345Q64 354 63 363Q62 373 60 382Q59 385 57 390Q56 396 56 398Q56 403 57 406Q59 410 61 415Q54 441 52 468Q51 495 51 521Q55 525 60 529Q65 534 70 538Q76 543 80 547Q85 551 86 551Q89 552 94 551Q100 551 105 549Q111 548 116 546Q121 545 122 543Q124 540 125 537Q127 534 129 532Q132 529 136 528Q141 528 146 520Q149 515 149 513Q149 512 150 511Q151 510 153 509Q155 508 161 505Q169 494 174 479Q180 465 186 450Q192 436 199 422Q207 409 220 399Q220 385 234 376Q234 365 238 363Q242 361 247 354Q250 341 258 332Q267 324 275 314Q277 311 278 308Q279 305 284 304Q283 298 286 296Q290 295 289 290Q301 281 301 275Q302 269 312 269Q310 265 313 262Q316 259 320 256Q325 253 330 249Q335 245 337 239L349 239Q351 228 360 223Q369 218 372 207Q377 205 381 201Q386 197 391 195Q392 187 396 182Q401 177 408 173Q407 165 413 157Q419 150 425 147Q430 148 429 143Q429 139 437 137Q453 153 444 176Q449 181 448 191Q448 201 448 207Q448 216 450 225Q452 235 452 244Q452 251 449 259Q450 261 452 268Q454 275 455 283Q457 291 458 298Q459 305 459 307Q459 312 456 314Q454 316 453 320Q456 323 458 326Q461 329 463 332Q464 341 460 342Q456 343 456 347Q456 355 458 363Q461 371 461 379Q461 383 459 386Q458 390 458 394Q458 401 460 407Q463 413 463 419Q463 424 460 433Q458 443 453 445Q455 460 456 475Q457 490 446 503Q445 514 444 524Q444 535 452 544Q459 546 465 548Q472 551 475 559Q486 559 496 559Q507 560 518 557Q525 545 531 534Q537 523 532 509Q534 504 537 498Q540 492 540 486Q540 482 538 479Q537 476 537 473Q537 468 538 467Q540 466 542 463ZM1087 487Q1081 482 1074 472Q1068 462 1062 460Q1060 459 1057 459Q1054 460 1051 460Q1046 460 1044 458Q1042 456 1038 455Q1031 459 1024 460Q1017 461 1010 465Q1004 465 1001 462Q998 459 993 459Q988 459 983 461Q979 463 975 458Q956 464 936 466Q917 469 898 474Q890 470 882 470Q875 471 867 469Q864 468 861 466Q858 465 855 465Q851 465 848 466Q845 467 841 467Q835 467 829 464Q823 462 817 462Q812 462 809 464Q806 467 801 462Q798 467 794 464Q791 462 788 460Q772 460 766 461Q761 463 754 462Q754 455 754 442Q754 429 754 415Q755 402 755 390Q755 379 754 375Q757 368 764 368Q772 368 777 368Q791 362 805 361Q820 361 834 361Q839 361 842 362Q846 363 851 363Q855 363 863 361Q872 360 880 359Q889 359 895 361Q902 363 902 371Q913 373 917 367Q922 361 927 361Q932 361 934 365Q936 369 940 371Q944 371 945 367Q946 364 953 364Q959 364 966 368Q974 373 982 363Q989 361 992 363Q995 365 1001 366Q1008 354 1017 343Q1026 333 1031 320Q1028 320 1024 317Q1020 314 1017 309Q1014 305 1012 301Q1010 297 1011 294Q1005 289 998 284Q992 280 984 280Q976 280 974 283Q973 286 968 286Q963 286 959 284Q956 283 952 283Q947 283 941 284Q936 286 930 286Q923 286 916 283Q910 281 903 281Q898 281 894 283Q891 285 887 286Q880 287 874 287Q868 288 861 288Q856 288 852 285Q849 283 844 283Q839 283 833 284Q828 286 823 286Q819 286 816 285Q813 284 810 284Q792 282 781 280Q770 279 759 276Q760 265 760 254Q761 243 766 233Q766 230 763 229Q761 228 761 223Q769 213 770 201Q772 190 771 178Q770 166 769 154Q768 142 773 130Q770 122 768 115Q767 109 768 101Q775 91 786 91Q791 91 795 91Q799 92 804 92Q808 92 811 91Q814 90 818 90Q830 90 842 91Q854 93 866 93Q870 93 873 92Q877 92 881 92Q888 92 894 93Q901 95 908 95Q913 95 917 93Q921 92 926 92Q935 92 943 95Q952 98 961 98Q963 98 966 97Q969 97 971 97Q976 97 978 101Q980 106 982 107Q987 108 992 109Q997 110 1002 111Q1006 112 1008 108Q1011 105 1012 102Q1021 101 1026 96Q1032 91 1040 90Q1042 85 1045 81Q1048 78 1053 78Q1051 70 1055 61Q1049 59 1044 54Q1040 49 1035 47Q1036 41 1037 35Q1038 30 1037 23Q1035 21 1031 21Q1028 22 1025 22Q1018 22 1016 17Q1015 13 1010 13Q1007 15 1002 15Q997 15 992 15Q987 15 982 15Q978 15 975 17Q969 17 965 14Q961 12 957 8Q947 12 938 9Q930 6 922 1Q918 5 914 5Q911 5 906 4Q906 7 903 9Q901 12 900 15Q883 12 866 13Q849 15 832 10Q823 15 810 15Q798 15 789 8Q781 12 772 8Q763 5 754 5Q741 8 738 5Q736 3 733 3Q728 3 723 3Q719 3 714 5Q709 12 705 12Q702 12 698 14Q697 22 689 29Q681 36 676 41Q679 43 682 44Q686 46 686 50Q679 60 678 64Q678 68 678 72Q679 77 678 81Q678 86 674 89Q684 92 684 96Q684 110 680 122Q676 134 676 148Q684 156 683 159Q683 163 683 173Q683 184 684 193Q686 203 677 211Q679 221 677 230Q676 240 676 250Q676 262 678 273Q681 285 681 297Q681 304 678 307Q676 310 676 313Q679 326 677 329Q675 333 674 338Q672 353 673 369Q675 385 675 401Q675 412 671 426Q668 440 670 446Q668 449 667 453Q666 457 662 459Q668 467 661 473Q655 480 655 488Q655 497 658 503Q662 509 658 519Q667 523 678 526Q683 531 684 534Q685 538 695 538Q712 538 728 535Q744 533 761 530Q765 531 768 531Q771 532 774 534Q782 530 789 530Q796 531 802 533Q809 535 815 537Q822 540 829 540Q837 540 844 538Q851 537 859 537Q885 537 911 540Q938 544 964 542Q973 537 971 533Q975 535 978 536Q982 537 987 537Q999 537 1014 536Q1030 536 1041 533Q1047 527 1051 526Q1056 524 1060 522Q1064 521 1069 519Q1073 517 1076 515Q1080 514 1084 512Q1091 502 1086 497Q1082 493 1087 487ZM1601 471Q1600 461 1605 458Q1611 456 1611 448Q1611 447 1604 442Q1597 437 1595 435Q1582 438 1572 432Q1563 426 1558 423Q1552 427 1546 425Q1540 423 1534 423Q1524 423 1515 426Q1507 430 1498 430Q1495 430 1492 429Q1489 428 1485 428Q1470 436 1461 433Q1452 430 1445 438Q1437 434 1428 433Q1420 433 1414 428Q1406 431 1398 429Q1390 428 1382 431Q1375 425 1378 422Q1382 419 1382 414Q1379 411 1378 407Q1378 404 1378 400Q1379 397 1378 393Q1377 389 1373 386Q1377 381 1378 375Q1380 369 1381 363Q1382 357 1383 351Q1384 346 1389 342Q1384 332 1387 322Q1391 312 1395 303Q1398 295 1397 287Q1397 280 1402 273Q1397 264 1399 258Q1401 253 1404 247Q1407 242 1409 237Q1412 232 1414 231Q1413 225 1411 216Q1410 208 1412 203Q1411 192 1412 186Q1413 181 1415 175Q1417 170 1418 164Q1420 159 1417 150Q1418 146 1419 142Q1420 138 1424 136Q1424 133 1421 131Q1418 130 1417 125Q1422 112 1429 102Q1427 91 1429 86Q1431 81 1432 71Q1429 66 1425 61Q1421 57 1417 52Q1418 35 1416 20Q1415 6 1394 4Q1387 3 1387 -6Q1380 -5 1376 -8Q1372 -11 1367 -11Q1363 -5 1360 -6Q1357 -7 1352 -7Q1348 -7 1341 1Q1334 9 1326 11Q1329 17 1327 20Q1326 24 1324 27Q1323 30 1323 33Q1323 36 1328 40Q1323 54 1325 68Q1328 83 1323 97Q1332 106 1330 120Q1328 134 1328 145Q1328 149 1329 152Q1330 156 1330 161Q1330 169 1326 174Q1322 180 1320 187Q1322 207 1320 225Q1319 243 1308 260Q1307 265 1308 267Q1310 270 1310 275Q1308 279 1307 283Q1306 288 1301 290Q1305 302 1304 310Q1304 318 1301 324Q1299 331 1296 336Q1293 342 1293 348Q1293 351 1294 354Q1296 357 1296 360Q1296 364 1293 367Q1290 371 1290 374Q1293 388 1290 393Q1288 398 1288 403Q1288 407 1288 410Q1289 413 1289 416Q1289 424 1282 430Q1276 436 1268 436Q1259 436 1250 433Q1242 430 1233 430Q1219 430 1205 431Q1192 432 1178 430Q1172 429 1166 426Q1160 423 1154 423Q1148 423 1142 426Q1137 430 1131 430Q1126 442 1116 449Q1106 456 1097 464Q1093 477 1098 483Q1103 489 1107 500Q1113 504 1119 508Q1126 512 1130 518Q1136 515 1143 514Q1150 513 1156 509Q1161 510 1165 512Q1170 514 1175 514Q1180 514 1184 511Q1188 509 1193 509Q1198 509 1203 512Q1208 515 1213 517Q1218 512 1224 512Q1231 513 1237 514Q1244 515 1250 515Q1256 516 1260 511Q1265 513 1268 516Q1272 519 1276 522Q1287 520 1297 514Q1308 509 1320 509Q1324 509 1327 510Q1330 512 1334 512Q1340 512 1346 510Q1352 509 1357 508Q1363 507 1368 508Q1374 509 1380 514Q1385 511 1389 508Q1394 505 1399 502Q1416 505 1434 503Q1452 501 1469 509Q1474 508 1478 507Q1482 507 1486 504Q1495 510 1505 509Q1515 508 1522 514Q1530 518 1533 517Q1536 517 1539 517Q1554 524 1560 522Q1567 521 1572 526Q1581 522 1586 518Q1592 514 1603 514Q1605 509 1610 501Q1615 494 1615 489Q1615 481 1610 478Q1605 476 1601 471ZM2091 517L2096 510Q2094 507 2090 494Q2086 482 2084 481Q2083 474 2072 468Q2062 463 2057 462Q2046 460 2031 461Q2017 462 2012 449Q2005 453 1997 452Q1990 452 1982 450Q1975 449 1967 447Q1960 445 1953 445Q1940 445 1927 450Q1915 455 1901 455Q1892 455 1883 452Q1875 450 1867 450Q1860 450 1854 452Q1848 455 1842 455Q1838 455 1834 454Q1831 454 1827 454Q1821 454 1817 458Q1808 453 1799 453Q1790 453 1781 454Q1772 456 1762 455Q1752 455 1742 448Q1744 441 1742 436Q1740 432 1740 426Q1740 420 1742 415Q1745 410 1745 405Q1745 394 1743 384Q1742 375 1752 367Q1759 371 1766 372Q1773 374 1780 378Q1785 378 1791 374Q1798 372 1804 372Q1811 373 1818 373Q1825 373 1830 370Q1836 368 1843 368Q1849 368 1854 370Q1860 373 1867 373Q1873 373 1878 370Q1884 368 1890 368Q1895 368 1899 369Q1904 370 1909 370Q1921 372 1933 371Q1945 370 1957 370Q1965 370 1971 372Q1978 374 1986 375Q1991 376 1995 375Q1999 375 2004 375Q2008 375 2016 377Q2024 375 2027 370Q2031 365 2040 365Q2045 365 2047 366Q2050 368 2054 370Q2056 367 2061 361Q2066 356 2071 351Q2077 346 2081 341Q2085 337 2085 334Q2085 328 2083 323Q2082 318 2074 317Q2072 312 2072 307Q2072 303 2064 299Q2064 294 2054 290Q2045 286 2040 289Q2030 283 2024 283Q2019 283 2014 286Q2010 289 2005 292Q2000 296 1992 296Q1985 296 1976 294Q1968 293 1963 289Q1958 290 1956 291Q1954 292 1952 293Q1950 294 1947 293Q1944 293 1939 291Q1921 291 1903 294Q1886 298 1868 298Q1859 298 1853 295Q1847 293 1839 291Q1834 290 1830 290Q1827 291 1822 291Q1820 291 1814 290Q1809 289 1803 288Q1797 287 1792 286Q1787 285 1786 284Q1784 289 1778 286Q1773 283 1771 281Q1763 286 1756 278Q1750 270 1750 262Q1750 251 1757 243Q1764 235 1762 221Q1763 217 1765 214Q1768 212 1770 208Q1771 201 1770 194Q1769 188 1769 181Q1769 176 1770 172Q1772 168 1772 164Q1772 161 1769 160Q1767 159 1767 154Q1767 149 1769 139Q1772 130 1775 126Q1775 122 1772 119Q1770 117 1770 112Q1770 104 1771 97Q1773 91 1767 84Q1765 76 1768 74Q1772 72 1772 68Q1772 62 1763 50Q1755 38 1753 30Q1745 26 1736 22Q1728 18 1718 18Q1711 18 1707 21Q1703 24 1697 25Q1693 33 1690 41Q1687 50 1680 57Q1680 63 1680 69Q1681 75 1683 80Q1680 86 1679 93Q1679 101 1679 109Q1680 117 1679 124Q1678 132 1673 138Q1683 149 1678 157Q1673 165 1673 171Q1673 178 1675 178Q1677 178 1671 187Q1675 191 1671 202Q1668 213 1666 217Q1670 222 1667 229Q1665 237 1672 240Q1665 250 1664 264Q1663 279 1659 281Q1662 287 1662 294Q1662 305 1658 315Q1655 325 1655 336Q1655 344 1656 352Q1657 361 1657 369Q1657 377 1655 383Q1653 390 1653 398Q1653 400 1653 403Q1654 406 1654 408Q1654 411 1653 414Q1652 417 1652 419Q1652 422 1652 424Q1653 427 1653 429Q1653 439 1649 448Q1645 457 1646 468Q1643 472 1638 474Q1642 478 1640 481Q1639 485 1636 488Q1640 512 1646 521Q1653 531 1660 534Q1667 537 1674 537Q1681 537 1687 543Q1693 540 1696 539Q1699 539 1701 539Q1703 540 1706 540Q1709 541 1714 541Q1718 541 1720 539Q1723 537 1727 536Q1749 534 1770 533Q1792 533 1812 524Q1817 526 1823 527Q1829 529 1835 531Q1843 530 1850 527Q1857 524 1865 524Q1875 524 1885 525Q1895 527 1905 527Q1910 527 1914 525Q1919 524 1924 524Q1931 524 1933 527Q1936 531 1941 531Q1952 531 1965 527Q1979 524 1987 536Q1994 532 2000 533Q2006 534 2012 536Q2018 539 2024 541Q2030 544 2037 544Q2045 544 2052 542Q2060 541 2068 541Q2071 536 2074 534Q2077 533 2080 531Q2083 529 2086 526Q2089 523 2091 517ZM2573 81Q2570 76 2565 72Q2561 68 2558 63Q2561 57 2560 52Q2560 47 2559 40Q2553 37 2548 32Q2543 27 2536 32Q2529 24 2514 23Q2500 22 2491 26Q2488 24 2485 21Q2482 19 2478 17Q2472 16 2470 11Q2463 9 2456 10Q2449 11 2442 11Q2425 9 2419 12Q2414 16 2404 11Q2396 13 2391 19Q2384 18 2382 15Q2380 13 2375 11Q2367 12 2358 13Q2350 14 2342 14Q2335 14 2330 11Q2325 8 2323 8Q2308 11 2301 8Q2294 6 2287 4Q2282 2 2272 2Q2269 1 2265 0Q2262 -1 2259 -4Q2253 -2 2243 -1Q2233 0 2233 -11Q2230 -7 2229 -4Q2229 0 2222 -1Q2215 8 2212 7Q2209 6 2207 8Q2205 13 2204 15Q2203 18 2198 20Q2194 25 2190 28Q2186 32 2183 37Q2182 42 2184 44Q2187 47 2189 52Q2185 54 2184 56Q2183 59 2181 64Q2181 69 2183 73Q2186 78 2189 83Q2185 88 2186 92Q2188 97 2188 102Q2188 111 2185 119Q2183 127 2183 135Q2183 143 2184 152Q2186 161 2178 166Q2181 180 2178 194Q2175 208 2181 221Q2180 227 2177 230Q2175 234 2173 239Q2175 245 2174 251Q2174 258 2173 264Q2173 270 2173 276Q2173 283 2176 289Q2173 295 2171 303Q2170 312 2169 322Q2169 332 2170 340Q2171 349 2173 355Q2174 361 2172 362Q2170 363 2168 368Q2170 375 2170 382Q2170 389 2174 395Q2169 403 2169 413Q2170 423 2171 433Q2173 444 2173 454Q2174 465 2168 475Q2168 482 2172 484Q2176 487 2176 492L2176 512Q2179 513 2181 515Q2183 518 2185 520Q2190 525 2195 525Q2200 526 2206 534Q2219 537 2219 534Q2220 531 2225 526Q2230 528 2233 527Q2236 526 2241 524Q2246 515 2255 500Q2265 485 2265 475Q2265 472 2261 469Q2257 466 2255 463Q2255 459 2255 456Q2255 454 2253 451Q2252 444 2254 442Q2257 440 2258 435Q2250 430 2252 424Q2255 419 2255 412Q2255 406 2252 401Q2250 397 2257 392Q2250 387 2255 379Q2254 373 2253 367Q2253 361 2253 354Q2253 349 2255 346Q2258 343 2258 340Q2258 338 2256 335Q2255 333 2255 330Q2255 327 2256 324Q2258 322 2258 319Q2258 317 2255 313Q2253 310 2253 306Q2253 298 2255 288Q2257 279 2262 271Q2257 264 2260 257Q2263 251 2258 248Q2255 242 2259 240Q2263 239 2263 236Q2263 233 2261 230Q2260 228 2260 225Q2260 218 2262 211Q2264 205 2257 200Q2263 185 2267 166Q2272 148 2270 131Q2276 129 2276 123Q2276 117 2283 115Q2282 110 2280 108Q2279 106 2284 101Q2303 93 2322 97Q2341 101 2361 101Q2371 101 2374 99Q2378 98 2379 95Q2381 93 2382 91Q2383 90 2389 90Q2411 97 2427 94Q2443 92 2455 98Q2458 98 2461 95Q2464 93 2468 92Q2474 101 2484 101Q2495 102 2503 110Q2511 111 2519 110Q2527 114 2536 115Q2545 117 2554 120Q2565 115 2568 103Q2572 92 2573 81ZM2755 49Q2753 46 2751 43Q2749 41 2748 38Q2742 36 2738 33Q2734 31 2727 31Q2714 18 2700 11Q2694 16 2686 17Q2679 19 2671 18Q2671 19 2668 22Q2665 26 2661 29Q2658 33 2655 36Q2652 40 2651 40Q2651 52 2648 64Q2646 76 2646 87Q2646 95 2649 103Q2652 111 2652 119Q2652 128 2651 137Q2651 146 2651 155Q2651 159 2652 162Q2653 165 2653 169Q2653 174 2650 178Q2648 183 2648 188Q2648 193 2649 197Q2651 201 2651 206Q2651 213 2646 218Q2647 223 2649 226Q2651 229 2653 234Q2646 254 2651 270Q2656 286 2656 306Q2656 310 2654 312Q2652 315 2651 319Q2656 326 2653 330Q2650 335 2648 340Q2651 343 2651 351Q2651 359 2651 363Q2652 368 2650 370Q2649 372 2648 377Q2653 383 2649 395Q2646 407 2646 415Q2646 419 2646 426Q2647 434 2647 442Q2647 450 2647 457Q2647 464 2646 468Q2644 471 2642 474Q2640 477 2640 481Q2640 486 2642 492Q2644 498 2643 503Q2648 506 2650 507Q2652 508 2658 506Q2660 513 2665 520Q2670 527 2678 527Q2682 527 2685 524Q2688 521 2691 519Q2694 517 2697 516Q2700 516 2703 521Q2709 519 2712 514Q2715 510 2723 509Q2725 502 2729 495Q2733 489 2733 482Q2733 477 2731 472Q2730 468 2730 463Q2730 460 2731 457Q2733 454 2733 450Q2733 444 2731 438Q2730 432 2730 425Q2730 419 2733 415Q2736 412 2736 407Q2736 399 2735 397Q2735 395 2740 388Q2741 383 2739 380Q2738 377 2738 374Q2738 369 2740 366Q2743 363 2743 360Q2743 357 2741 354Q2740 351 2740 348Q2740 323 2743 301Q2744 295 2746 289Q2748 284 2748 279Q2748 273 2746 267Q2745 262 2745 256Q2745 244 2746 232Q2748 221 2746 209Q2748 204 2748 199Q2748 195 2753 193Q2751 188 2748 186Q2746 184 2748 177Q2746 169 2750 165Q2754 161 2754 157Q2754 156 2751 154Q2748 153 2748 148Q2748 144 2750 141Q2753 139 2753 135Q2753 130 2752 125Q2751 120 2751 115Q2751 104 2754 92Q2757 80 2747 70Q2752 65 2751 59Q2750 53 2755 49ZM3219 22Q3216 23 3213 25Q3211 27 3208 29Q3197 25 3199 17Q3201 10 3197 3Q3184 1 3166 1Q3148 2 3140 13Q3136 13 3132 13Q3128 13 3124 14Q3125 18 3123 21Q3122 24 3122 27Q3122 35 3119 36Q3116 37 3111 40L3111 58Q3111 61 3108 64Q3105 68 3106 75Q3104 79 3096 87Q3089 95 3087 97Q3088 102 3085 103Q3083 104 3084 108Q3074 119 3067 132Q3060 145 3049 156Q3046 173 3035 187Q3028 187 3026 183Q3025 180 3024 177Q3023 174 3021 171Q3019 169 3012 170Q3011 162 3010 153Q3009 144 3009 136Q3001 120 2994 110Q2988 100 2982 92Q2977 85 2974 77Q2972 70 2967 64L2967 47Q2962 45 2958 43Q2955 42 2952 39Q2952 33 2949 29Q2947 26 2944 23Q2941 20 2938 16Q2936 12 2937 5Q2923 -6 2903 -6Q2884 -6 2867 -4Q2865 1 2863 2Q2862 4 2861 5Q2860 7 2859 10Q2858 13 2858 21Q2858 26 2855 31Q2853 36 2853 41Q2853 49 2858 56Q2863 64 2863 74Q2873 77 2877 86Q2882 95 2893 98Q2891 106 2894 109Q2898 112 2898 119Q2905 134 2912 140Q2919 146 2920 158Q2931 165 2934 179Q2937 193 2945 204Q2944 207 2945 211Q2946 215 2944 218Q2949 226 2952 235Q2956 245 2960 254Q2960 259 2959 263Q2958 267 2960 272Q2953 279 2948 283Q2943 288 2945 299Q2942 304 2935 306Q2936 311 2934 313Q2932 316 2930 320Q2923 334 2915 347Q2907 360 2902 374Q2899 381 2892 381Q2892 395 2877 397Q2876 404 2874 408Q2873 413 2865 413Q2862 425 2853 434Q2845 444 2842 457Q2833 459 2830 468Q2828 477 2820 481Q2818 495 2814 504Q2811 513 2813 528Q2824 538 2830 546Q2837 554 2854 554Q2863 554 2872 549Q2881 544 2886 536Q2889 536 2892 535Q2895 534 2899 533Q2898 526 2903 517Q2908 508 2913 503L2919 493Q2924 485 2929 482Q2935 479 2939 474Q2942 461 2946 456Q2951 451 2957 446Q2956 440 2959 436Q2962 433 2962 428Q2962 422 2966 421Q2970 420 2972 416Q2971 413 2973 409Q2976 406 2979 402Q2982 399 2985 395Q2988 391 2989 386Q2994 383 2998 379Q3003 375 3009 373Q3008 365 3010 361Q3013 357 3016 351Q3028 365 3039 380Q3050 396 3058 413Q3062 415 3064 417Q3067 419 3071 420Q3072 434 3087 441Q3086 448 3088 452Q3090 456 3093 460Q3096 464 3098 467Q3100 471 3099 477Q3106 488 3119 492Q3120 501 3123 507Q3127 514 3131 519Q3136 525 3140 530Q3145 536 3148 544Q3153 543 3159 541Q3165 539 3171 537Q3178 536 3183 537Q3189 538 3192 544Q3198 545 3199 539Q3200 534 3207 534Q3205 523 3207 513Q3209 504 3208 493Q3200 485 3194 477Q3189 469 3178 464Q3178 459 3176 455Q3175 452 3175 447Q3162 431 3152 421Q3142 411 3139 397Q3132 392 3128 385Q3124 378 3120 371Q3117 371 3114 369Q3111 368 3108 367Q3109 361 3107 357Q3106 354 3104 351Q3102 348 3100 345Q3098 342 3098 337Q3086 329 3080 315Q3075 301 3064 292Q3063 287 3068 282Q3071 278 3072 273Q3074 269 3078 265Q3086 259 3089 255Q3095 246 3098 235Q3101 225 3106 215Q3110 210 3117 207Q3124 205 3126 200Q3134 189 3142 176Q3151 164 3156 151Q3159 144 3166 145Q3166 129 3174 120Q3183 112 3196 106Q3198 95 3207 89Q3204 78 3208 74Q3212 70 3220 67Q3220 57 3222 43Q3224 30 3219 22Z" fill="#2d2926" style=""></path></g></g></g></svg>